<svg width="41" height="41" viewBox="0 0 41 41" fill="none" xmlns="http://www.w3.org/2000/svg">
<g clip-path="url(#clip0_404_335)">
<path d="M33 16.75C33 20.3359 31.8359 23.6484 29.875 26.3359L39.7656 36.2344C40.7422 37.2109 40.7422 38.7969 39.7656 39.7734C38.7891 40.75 37.2031 40.75 36.2266 39.7734L26.3359 29.875C23.6484 31.8438 20.3359 33 16.75 33C7.77344 33 0.5 25.7266 0.5 16.75C0.5 7.77344 7.77344 0.5 16.75 0.5C25.7266 0.5 33 7.77344 33 16.75ZM16.75 28C18.2274 28 19.6903 27.709 21.0552 27.1436C22.4201 26.5783 23.6603 25.7496 24.705 24.705C25.7496 23.6603 26.5783 22.4201 27.1436 21.0552C27.709 19.6903 28 18.2274 28 16.75C28 15.2726 27.709 13.8097 27.1436 12.4448C26.5783 11.0799 25.7496 9.83971 24.705 8.79505C23.6603 7.75039 22.4201 6.92172 21.0552 6.35636C19.6903 5.79099 18.2274 5.5 16.75 5.5C15.2726 5.5 13.8097 5.79099 12.4448 6.35636C11.0799 6.92172 9.83971 7.75039 8.79505 8.79505C7.75039 9.83971 6.92172 11.0799 6.35636 12.4448C5.79099 13.8097 5.5 15.2726 5.5 16.75C5.5 18.2274 5.79099 19.6903 6.35636 21.0552C6.92172 22.4201 7.75039 23.6603 8.79505 24.705C9.83971 25.7496 11.0799 26.5783 12.4448 27.1436C13.8097 27.709 15.2726 28 16.75 28Z" fill="#2D0065"/>
</g>
<defs>
<clipPath id="clip0_404_335">
<rect width="40" height="40" fill="white" transform="translate(0.5 0.5)"/>
</clipPath>
</defs>
</svg>
