<svg width="47" height="43" viewBox="0 0 47 43" fill="none" xmlns="http://www.w3.org/2000/svg">
<g clip-path="url(#clip0_404_337)">
<path d="M27.597 30.6143C29.7772 30.2944 31.7418 29.0229 32.9636 27.0952L45.8772 6.57916C46.8834 4.97955 46.6279 2.86315 45.2702 1.55885C43.9126 0.254554 41.8442 0.13971 40.3588 1.28815L21.4557 15.8569C19.539 17.3335 18.405 19.6385 18.389 22.0995L27.597 30.6143ZM26.0317 32.6979L16.7678 24.1339C11.9921 24.3143 8.16678 28.3585 8.16678 33.3131C8.16678 33.6331 8.18275 33.953 8.21469 34.2647C8.35844 35.7003 7.40011 37.2506 5.99455 37.2506H5.61122C4.19768 37.2506 3.05566 38.4237 3.05566 39.8756C3.05566 41.3276 4.19768 42.5006 5.61122 42.5006H17.1112C22.0546 42.5006 26.0557 38.3909 26.0557 33.3131C26.0557 33.1081 26.0477 32.903 26.0397 32.6979H26.0317Z" fill="#2D0065"/>
</g>
<defs>
<clipPath id="clip0_404_337">
<rect width="46" height="42" fill="white" transform="translate(0.5 0.5)"/>
</clipPath>
</defs>
</svg>
