<svg width="41" height="41" viewBox="0 0 41 41" fill="none" xmlns="http://www.w3.org/2000/svg">
<g clip-path="url(#clip0_404_341)">
<path d="M40.5 20.5C40.5 20.5703 40.5 20.6406 40.5 20.7109C40.4688 23.5625 37.875 25.5 35.0234 25.5H27.375C25.3047 25.5 23.625 27.1797 23.625 29.25C23.625 29.5156 23.6562 29.7734 23.7031 30.0234C23.8672 30.8203 24.2109 31.5859 24.5469 32.3594C25.0234 33.4375 25.4922 34.5078 25.4922 35.6406C25.4922 38.125 23.8047 40.3828 21.3203 40.4844C21.0469 40.4922 20.7734 40.5 20.4922 40.5C9.45312 40.5 0.5 31.5469 0.5 20.5C0.5 9.45312 9.45312 0.5 20.5 0.5C31.5469 0.5 40.5 9.45312 40.5 20.5ZM10.5 23C10.5 22.337 10.2366 21.7011 9.76777 21.2322C9.29893 20.7634 8.66304 20.5 8 20.5C7.33696 20.5 6.70107 20.7634 6.23223 21.2322C5.76339 21.7011 5.5 22.337 5.5 23C5.5 23.663 5.76339 24.2989 6.23223 24.7678C6.70107 25.2366 7.33696 25.5 8 25.5C8.66304 25.5 9.29893 25.2366 9.76777 24.7678C10.2366 24.2989 10.5 23.663 10.5 23ZM10.5 15.5C11.163 15.5 11.7989 15.2366 12.2678 14.7678C12.7366 14.2989 13 13.663 13 13C13 12.337 12.7366 11.7011 12.2678 11.2322C11.7989 10.7634 11.163 10.5 10.5 10.5C9.83696 10.5 9.20107 10.7634 8.73223 11.2322C8.26339 11.7011 8 12.337 8 13C8 13.663 8.26339 14.2989 8.73223 14.7678C9.20107 15.2366 9.83696 15.5 10.5 15.5ZM23 8C23 7.33696 22.7366 6.70107 22.2678 6.23223C21.7989 5.76339 21.163 5.5 20.5 5.5C19.837 5.5 19.2011 5.76339 18.7322 6.23223C18.2634 6.70107 18 7.33696 18 8C18 8.66304 18.2634 9.29893 18.7322 9.76777C19.2011 10.2366 19.837 10.5 20.5 10.5C21.163 10.5 21.7989 10.2366 22.2678 9.76777C22.7366 9.29893 23 8.66304 23 8ZM30.5 15.5C31.163 15.5 31.7989 15.2366 32.2678 14.7678C32.7366 14.2989 33 13.663 33 13C33 12.337 32.7366 11.7011 32.2678 11.2322C31.7989 10.7634 31.163 10.5 30.5 10.5C29.837 10.5 29.2011 10.7634 28.7322 11.2322C28.2634 11.7011 28 12.337 28 13C28 13.663 28.2634 14.2989 28.7322 14.7678C29.2011 15.2366 29.837 15.5 30.5 15.5Z" fill="#2D0065"/>
</g>
<defs>
<clipPath id="clip0_404_341">
<rect width="40" height="40" fill="white" transform="translate(0.5 0.5)"/>
</clipPath>
</defs>
</svg>
