<svg width="47" height="41" viewBox="0 0 47 41" fill="none" xmlns="http://www.w3.org/2000/svg">
<g clip-path="url(#clip0_404_339)">
<path d="M19.2434 3.83594L16.2326 4.9375C15.9931 5.02344 15.8333 5.25 15.8333 5.5C15.8333 5.75 15.9931 5.97656 16.2326 6.0625L19.2434 7.16406L20.3694 10.1094C20.4573 10.3438 20.6889 10.5 20.9444 10.5C21.2 10.5 21.4316 10.3438 21.5194 10.1094L22.6455 7.16406L25.6562 6.0625C25.8958 5.97656 26.0556 5.75 26.0556 5.5C26.0556 5.25 25.8958 5.02344 25.6562 4.9375L22.6455 3.83594L21.5194 0.890625C21.4316 0.65625 21.2 0.5 20.9444 0.5C20.6889 0.5 20.4573 0.65625 20.3694 0.890625L19.2434 3.83594ZM4.1816 31.3906C2.68819 32.8516 2.68819 35.2266 4.1816 36.6953L6.94479 39.3984C8.43819 40.8594 10.866 40.8594 12.3674 39.3984L42.8184 9.60156C44.3118 8.14062 44.3118 5.76562 42.8184 4.29688L40.0552 1.60156C38.5618 0.140625 36.134 0.140625 34.6326 1.60156L4.1816 31.3906ZM39.2007 6.95312L30.8153 15.1562L28.9545 13.3359L37.3399 5.13281L39.2007 6.95312ZM1.09896 9.65625C0.739583 9.78906 0.5 10.125 0.5 10.5C0.5 10.875 0.739583 11.2109 1.09896 11.3438L5.61111 13L7.30417 17.4141C7.43993 17.7656 7.78333 18 8.16667 18C8.55 18 8.8934 17.7656 9.02917 17.4141L10.7222 13L15.2344 11.3438C15.5937 11.2109 15.8333 10.875 15.8333 10.5C15.8333 10.125 15.5937 9.78906 15.2344 9.65625L10.7222 8L9.02917 3.58594C8.8934 3.23438 8.55 3 8.16667 3C7.78333 3 7.43993 3.23438 7.30417 3.58594L5.61111 8L1.09896 9.65625ZM29.2101 29.6562C28.8507 29.7891 28.6111 30.125 28.6111 30.5C28.6111 30.875 28.8507 31.2109 29.2101 31.3438L33.7222 33L35.4153 37.4141C35.551 37.7656 35.8944 38 36.2778 38C36.6611 38 37.0045 37.7656 37.1403 37.4141L38.8333 33L43.3455 31.3438C43.7049 31.2109 43.9444 30.875 43.9444 30.5C43.9444 30.125 43.7049 29.7891 43.3455 29.6562L38.8333 28L37.1403 23.5859C37.0045 23.2344 36.6611 23 36.2778 23C35.8944 23 35.551 23.2344 35.4153 23.5859L33.7222 28L29.2101 29.6562Z" fill="#2D0065"/>
</g>
<defs>
<clipPath id="clip0_404_339">
<rect width="46" height="40" fill="white" transform="translate(0.5 0.5)"/>
</clipPath>
</defs>
</svg>
